:SAMPLES-PER-SECOND 30
:FULLY-SPECIFIED
:DEGREES
382
root  8.77025 38.2655 9.13376 -172.062 -77.757 163.505
RightUpLeg  -14.6953 -15.8234 0.986467
RightLeg  13.8544 -21.4617 0.877548
RightFoot  4.04422 2.10718 -15.2513
RightToes  5.82063e-011 0 -3.6325e-017
Spine  3.36865 -1.02763 5.26474
Spine1  12.8112 -0.481 -1.76163
HEad  -21.4381 -6.7307 -3.73054
LeftShoulder1  -0.207088 4.08302 -29.6272
LeftArm  15.8665 -13.8924 -49.8578
LeftForeArm  15.647 -22.4283 -4.60927
LeftHand  -0.0287855 4.76894 0.90468
RightShoulder  -0.458018 -4.85301 27.0543
RightArm  13.2328 2.61801 49.3978
RightForeArm  13.4936 11.7144 6.14756
RightHand  -0.203515 3.33472 -2.95273
LeftUpLeg  18.3309 12.6923 -3.63868
LeftLeg  16.5695 1.42587 0.50325
LeftFoot  -18.7727 0.0684091 -0.635582
LeftToes  -1.20963e-009 8.6283e-011 2.04439e-011
383
root  7.61337 38.221 8.98067 178.271 -74.8504 174.068
RightUpLeg  -15.7311 -19.8554 4.97279
RightLeg  17.2857 -14.0387 -0.696189
RightFoot  1.68653 1.61166 -13.9405
RightToes  5.82063e-011 0 -3.6325e-017
Spine  2.42817 -0.949687 9.04948
Spine1  12.6165 -0.168466 -2.01752
HEad  -20.1502 -6.50663 -4.38495
LeftShoulder1  -0.183656 4.0094 -30.1048
LeftArm  10.7131 -12.0632 -49.2862
LeftForeArm  20.8201 -16.1354 -7.22154
LeftHand  -0.0297671 5.44931 0.959899
RightShoulder  -0.487588 -4.93971 27.0869
RightArm  12.021 3.35155 48.8082
RightForeArm  15.7005 9.7288 6.27732
RightHand  -0.130879 2.82314 -2.05301
LeftUpLeg  16.2034 15.8639 -0.219122
LeftLeg  23.8731 -1.19203 -0.249423
LeftFoot  -17.8642 -0.209344 -5.72197
LeftToes  -1.20963e-009 8.6283e-011 2.04439e-011
384
root  6.6101 38.1903 8.70781 175.364 -72.7348 177.708
RightUpLeg  -15.923 -18.9135 6.44675
RightLeg  19.6792 -12.8995 -1.54373
RightFoot  -0.453638 1.29329 -13.5299
RightToes  5.82063e-011 0 -3.6325e-017
Spine  2.62583 -1.37621 8.59544
Spine1  11.1463 -1.25102 1.17322
HEad  -18.3093 -5.59104 -4.81546
LeftShoulder1  -0.273449 4.24885 -30.5673
LeftArm  0.936879 -9.44816 -48.5553
LeftForeArm  31.4946 -8.53177 -9.5766
LeftHand  -0.0392663 5.89581 -1.28064
RightShoulder  -0.421963 -4.77074 26.3807
RightArm  10.7281 3.13822 48.7274
RightForeArm  17.6767 8.85339 5.96262
RightHand  -0.0587226 2.07313 -1.10642
LeftUpLeg  12.1054 17.776 2.44781
LeftLeg  33.8151 -3.72257 -2.30805
LeftFoot  -13.0996 -0.0769113 -11.4642
LeftToes  -1.20963e-009 8.6283e-011 2.04439e-011
385
root  5.71106 38.1923 8.45933 172.85 -70.7321 -179.565
RightUpLeg  -14.8277 -16.348 6.91292
RightLeg  20.9344 -13.7776 -1.60821
RightFoot  -2.17724 1.04836 -13.1826
RightToes  5.82063e-011 0 -3.6325e-017
Spine  3.28931 -1.94498 8.69194
Spine1  10.1932 -2.00878 2.99096
HEad  -17.7363 -5.26947 -3.89047
LeftShoulder1  -0.228254 4.13347 -30.1165
LeftArm  -2.78903 -7.76147 -48.282
LeftForeArm  37.2914 -1.80131 -9.38424
LeftHand  -0.0728389 6.69087 -2.88039
RightShoulder  -0.46688 -4.89427 26.705
RightArm  10.3699 2.88803 48.1386
RightForeArm  16.0703 9.56141 5.74415
RightHand  -0.0905209 1.77368 -1.62003
LeftUpLeg  7.10976 17.8349 4.33976
LeftLeg  44.1554 -4.36085 -4.13401
LeftFoot  -3.5864 0.998571 -14.6894
LeftToes  -1.20963e-009 8.6283e-011 2.04439e-011
386
root  4.83298 38.1785 8.27016 170.454 -67.72 -176.864
RightUpLeg  -13.8584 -14.9465 8.10555
RightLeg  21.9565 -12.4434 -1.53656
RightFoot  -3.68221 0.823513 -12.614
RightToes  5.82063e-011 0 -3.6325e-017
Spine  3.62704 -2.22583 10.0376
Spine1  9.89845 -2.1675 3.34301
HEad  -18.2676 -4.85138 -2.962
LeftShoulder1  -0.256877 4.20133 -30.6944
LeftArm  -2.63767 -6.75244 -46.7317
LeftForeArm  42.6245 2.18055 -9.34905
LeftHand  -0.107844 7.27754 -3.9884
RightShoulder  -0.52286 -5.05092 26.9873
RightArm  10.6677 2.8041 47.7073
RightForeArm  13.6578 11.0319 5.58658
RightHand  -0.144618 2.25658 -2.38481
LeftUpLeg  1.9064 17.7085 5.99302
LeftLeg  53.128 -4.26533 -5.59724
LeftFoot  6.49342 2.11858 -13.773
LeftToes  -1.20963e-009 8.6283e-011 2.04439e-011
387
root  3.99671 38.1788 8.11604 170.303 -63.2624 -176.483
RightUpLeg  -13.0098 -13.6483 8.97459
RightLeg  22.918 -9.51455 -1.21456
RightFoot  -4.88198 0.665952 -12.3219
RightToes  5.82063e-011 0 -3.6325e-017
Spine  4.25487 -2.04188 10.8518
Spine1  9.47595 -1.74761 3.41902
HEad  -18.1563 -4.41961 -2.32889
LeftShoulder1  -0.295563 4.29792 -31.0902
LeftArm  -3.27755 -3.67503 -45.2606
LeftForeArm  48.1848 2.09335 -9.14436
LeftHand  -0.0829742 6.39766 -4.7825
RightShoulder  -0.556892 -5.14004 27.2614
RightArm  12.972 3.19279 47.1238
RightForeArm  10.5488 12.8891 5.73924
RightHand  -0.180695 2.76216 -2.79265
LeftUpLeg  -2.09001 18.4262 6.93993
LeftLeg  59.1052 -3.37068 -5.52423
LeftFoot  8.40727 1.96174 -11.4903
LeftToes  -1.20963e-009 8.6283e-011 2.04439e-011
388
root  3.15197 38.2961 7.98757 171.758 -58.2406 -178.009
RightUpLeg  -11.6751 -11.1815 8.84481
RightLeg  23.1794 -6.94681 -1.00238
RightFoot  -5.70094 0.550707 -11.9032
RightToes  5.82063e-011 0 -3.6325e-017
Spine  4.55215 -1.76896 10.8926
Spine1  9.45418 -1.2565 3.0349
HEad  -18.4979 -3.61221 -1.74019
LeftShoulder1  -0.368601 4.48204 -31.5237
LeftArm  -3.00709 0.563775 -43.4428
LeftForeArm  48.0349 -0.576156 -9.4401
LeftHand  -0.0983867 6.89518 -4.28587
RightShoulder  -0.557974 -5.15027 27.1187
RightArm  15.7301 3.71046 47.2811
RightForeArm  8.43879 15.1256 5.61428
RightHand  -0.178626 3.11235 -2.67333
LeftUpLeg  -5.16594 18.7708 7.03567
LeftLeg  62.1772 -2.29795 -4.14104
LeftFoot  5.55742 1.55322 -10.6676
LeftToes  -1.20963e-009 8.6283e-011 2.04439e-011
389
root  2.31002 38.4745 7.89056 172.906 -52.8738 -179.393
RightUpLeg  -9.96316 -8.48565 8.28155
RightLeg  22.8444 -4.30807 -0.471599
RightFoot  -6.10297 0.486218 -11.4792
RightToes  5.82063e-011 0 -3.6325e-017
Spine  4.88673 -1.53494 10.8835
Spine1  9.30664 -0.830725 2.56845
HEad  -18.246 -3.42004 -1.97872
LeftShoulder1  -0.463758 4.71718 -32.0898
LeftArm  -2.90765 4.85948 -41.8024
LeftForeArm  42.7348 -3.09578 -9.48413
LeftHand  -0.0911845 7.13448 -3.17698
RightShoulder  -0.581462 -5.23185 26.8981
RightArm  18.1503 4.03633 47.6723
RightForeArm  7.47249 17.4946 5.19831
RightHand  -0.187076 3.53095 -2.68219
LeftUpLeg  -7.60947 18.1052 6.81705
LeftLeg  62.5186 -1.20326 -1.92917
LeftFoot  4.36435 1.24633 -9.21297
LeftToes  -1.20963e-009 8.6283e-011 2.04439e-011
390
root  1.45941 38.6928 7.79673 174.278 -47.4463 179.631
RightUpLeg  -8.77339 -6.61978 7.61505
RightLeg  22.0166 -0.754119 0.571086
RightFoot  -6.17867 0.462394 -11.1332
RightToes  5.82063e-011 0 -3.6325e-017
Spine  4.31419 -1.26951 11.4915
Spine1  9.31494 -0.305772 1.15688
HEad  -17.4268 -5.30027 -1.55939
LeftShoulder1  -0.492434 4.79411 -32.0286
LeftArm  -2.98758 8.13242 -41.009
LeftForeArm  34.9147 -4.10703 -9.2745
LeftHand  -0.077774 6.79689 -3.07278
RightShoulder  -0.618198 -5.33133 27.1015
RightArm  20.3066 3.98566 47.5728
RightForeArm  5.64573 20.2935 4.75052
RightHand  -0.208723 3.6995 -2.92665
LeftUpLeg  -10.2127 15.9063 6.18531
LeftLeg  60.6193 -0.033029 0.491137
LeftFoot  2.56612 0.899681 -7.48704
LeftToes  -1.20963e-009 8.6283e-011 2.04439e-011
391
root  0.645069 38.8971 7.7106 175.21 -41.9169 178.931
RightUpLeg  -7.50883 -5.20787 6.79275
RightLeg  21.0965 3.35351 1.70093
RightFoot  -6.19243 0.443936 -10.7585
RightToes  5.82063e-011 0 -3.6325e-017
Spine  4.06544 -1.06315 11.6853
Spine1  9.21456 0.0434238 0.246651
HEad  -17.0787 -6.99979 -1.48957
LeftShoulder1  -0.551323 4.95858 -31.7489
LeftArm  -4.28742 11.0787 -41.2888
LeftForeArm  31.4991 -5.35678 -8.52042
LeftHand  -0.0914908 7.48268 -2.56791
RightShoulder  -0.676476 -5.49161 27.3516
RightArm  22.2963 4.307 47.0655
RightForeArm  4.21436 22.8995 4.73633
RightHand  -0.193782 4.10084 -2.63521
LeftUpLeg  -11.9063 12.364 5.82934
LeftLeg  56.8598 1.22207 2.52412
LeftFoot  0.71885 0.543367 -5.18015
LeftToes  -1.20963e-009 8.6283e-011 2.04439e-011
392
root  -0.144453 39.0917 7.6064 176.085 -36.2887 178.251
RightUpLeg  -6.39244 -4.21973 5.82228
RightLeg  20.1855 7.98104 2.74661
RightFoot  -6.16624 0.438575 -10.583
RightToes  5.82063e-011 0 -3.6325e-017
Spine  3.75129 -0.701233 11.3599
Spine1  9.18585 0.338087 -0.0347493
HEad  -16.7446 -10.08 -1.34588
LeftShoulder1  -0.593575 5.063 -31.9158
LeftArm  -5.02671 12.5734 -41.3958
LeftForeArm  31.3481 -5.94032 -8.12058
LeftHand  -0.0768123 7.13914 -2.34595
RightShoulder  -0.676177 -5.49363 27.2997
RightArm  22.041 4.49788 46.6346
RightForeArm  4.37301 24.8506 5.08518
RightHand  -0.252541 4.45209 -3.26469
LeftUpLeg  -12.729 7.9 5.7859
LeftLeg  51.4841 2.28825 3.53938
LeftFoot  -1.24736 0.31812 -3.53163
LeftToes  -1.20963e-009 8.6283e-011 2.04439e-011
393
root  -0.895657 39.2458 7.52632 176.961 -30.54 177.954
RightUpLeg  -5.94774 -3.00437 5.19956
RightLeg  19.5564 12.5469 3.38384
RightFoot  -6.02799 0.443425 -10.3941
RightToes  5.82063e-011 0 -3.6325e-017
Spine  3.40997 -0.496188 11.1094
Spine1  8.95394 0.414331 -0.185836
HEad  -16.9419 -13.2912 -0.784636
LeftShoulder1  -0.637622 5.16615 -32.2068
LeftArm  -4.96205 12.7377 -41.3083
LeftForeArm  32.6621 -5.32836 -8.10432
LeftHand  -0.0781945 6.65105 -3.39934
RightShoulder  -0.679107 -5.50267 27.2945
RightArm  21.769 4.80348 46.0657
RightForeArm  5.1911 26.4713 5.41733
RightHand  -0.240192 4.6247 -3.07264
LeftUpLeg  -13.0932 2.85918 6.40775
LeftLeg  44.8861 2.96825 3.5615
LeftFoot  -2.99505 0.232863 -2.96362
LeftToes  -1.20963e-009 8.6283e-011 2.04439e-011
